<svg xmlns="http://www.w3.org/2000/svg" width="1024" height="1024" viewBox="0 0 1024 1024" shape-rendering="geometricPrecision">
  <g fill="#000000" fill-rule="evenodd">
    <path d="M 527.00,850.50 L 499.00,850.50 L 498.00,848.50 L 482.00,849.50 L 481.00,847.50 L 473.00,848.50 L 471.00,846.50 L 465.00,847.50 L 464.00,845.50 L 458.00,846.50 L 457.00,844.50 L 451.00,845.50 L 451.00,843.50 L 441.00,843.50 L 441.00,841.50 L 437.00,842.50 L 429.00,840.50 L 428.00,838.50 L 425.00,839.50 L 418.00,837.50 L 417.00,835.50 L 414.00,836.50 L 414.00,834.50 L 411.00,835.50 L 411.00,833.50 L 408.00,834.50 L 396.00,830.50 L 396.00,828.50 L 394.00,829.50 L 393.00,827.50 L 391.00,828.50 L 383.00,823.50 L 381.00,824.50 L 381.00,822.50 L 379.00,823.50 L 374.00,821.50 L 374.00,819.50 L 372.00,820.50 L 372.00,818.50 L 370.00,819.50 L 354.00,811.50 L 354.00,809.50 L 352.00,810.50 L 352.00,808.50 L 347.00,807.50 L 345.00,804.50 L 340.00,803.50 L 338.00,800.50 L 337.00,801.50 L 330.00,795.50 L 329.00,796.50 L 324.00,793.50 L 324.00,791.50 L 323.00,792.50 L 318.00,789.50 L 318.00,787.50 L 317.00,788.50 L 314.00,786.50 L 314.00,784.50 L 313.00,785.50 L 310.00,783.50 L 307.00,779.50 L 306.00,780.50 L 297.00,773.50 L 296.00,770.50 L 295.00,771.50 L 290.00,767.50 L 290.00,765.50 L 289.00,766.50 L 274.50,753.00 L 275.50,752.00 L 272.00,748.50 L 271.00,749.50 L 268.50,747.00 L 244.50,719.00 L 245.50,718.00 L 241.50,715.00 L 242.50,714.00 L 240.50,714.00 L 238.50,711.00 L 239.50,710.00 L 237.50,710.00 L 233.50,704.00 L 234.50,703.00 L 231.50,701.00 L 232.50,700.00 L 230.50,700.00 L 230.50,697.00 L 228.50,697.00 L 224.50,690.00 L 225.50,689.00 L 223.50,689.00 L 222.50,684.00 L 220.50,684.00 L 219.50,679.00 L 217.50,679.00 L 212.50,670.00 L 213.50,668.00 L 211.50,668.00 L 204.50,654.00 L 205.50,652.00 L 202.50,650.00 L 198.50,640.00 L 199.50,638.00 L 197.50,638.00 L 197.50,633.00 L 192.50,625.00 L 193.50,622.00 L 191.50,621.00 L 188.50,613.00 L 189.50,610.00 L 186.50,606.00 L 187.50,603.00 L 184.50,599.00 L 184.50,592.00 L 182.50,591.00 L 182.50,583.00 L 180.50,581.00 L 181.50,578.00 L 178.50,572.00 L 179.50,566.00 L 177.50,566.00 L 178.50,559.00 L 176.50,558.00 L 177.50,551.00 L 175.50,551.00 L 176.50,539.00 L 174.50,539.00 L 175.50,520.00 L 173.50,520.00 L 173.50,505.00 L 175.50,509.00 L 175.50,474.00 L 177.50,474.00 L 176.50,467.00 L 178.50,466.00 L 177.50,460.00 L 178.50,453.00 L 180.50,452.00 L 179.50,448.00 L 181.50,447.00 L 180.50,442.00 L 182.50,442.00 L 182.50,433.00 L 183.50,429.00 L 185.50,428.00 L 184.50,425.00 L 185.50,421.00 L 187.50,421.00 L 186.50,418.00 L 190.50,405.00 L 192.50,404.00 L 191.50,401.00 L 193.50,401.00 L 192.50,399.00 L 197.50,385.00 L 199.50,385.00 L 199.50,380.00 L 201.50,380.00 L 200.50,378.00 L 204.50,373.00 L 203.50,371.00 L 205.50,371.00 L 204.50,369.00 L 219.50,340.00 L 221.50,340.00 L 222.50,335.00 L 224.50,335.00 L 225.50,330.00 L 227.50,330.00 L 227.50,327.00 L 229.50,327.00 L 228.50,326.00 L 231.50,321.00 L 233.50,321.00 L 233.50,318.00 L 235.50,318.00 L 235.50,315.00 L 239.00,310.50 L 240.50,311.00 L 239.50,310.00 L 258.50,286.00 L 262.50,284.00 L 261.50,283.00 L 275.00,268.50 L 286.00,258.50 L 287.00,259.50 L 286.50,258.00 L 293.00,252.50 L 294.00,253.50 L 296.00,249.50 L 299.00,247.50 L 300.00,248.50 L 299.50,247.00 L 308.00,240.50 L 309.00,241.50 L 309.00,239.50 L 312.00,237.50 L 313.00,238.50 L 312.50,237.00 L 319.00,232.50 L 320.00,233.50 L 320.00,231.50 L 323.00,231.50 L 322.50,230.00 L 326.00,227.50 L 329.00,227.50 L 333.00,223.50 L 334.00,224.50 L 334.00,222.50 L 343.00,217.50 L 344.00,218.50 L 344.00,216.50 L 352.00,212.50 L 353.00,213.50 L 354.00,211.50 L 355.00,212.50 L 359.00,208.50 L 361.00,209.50 L 361.00,207.50 L 365.00,207.50 L 365.00,205.50 L 367.00,206.50 L 368.00,204.50 L 374.00,201.50 L 376.00,202.50 L 377.00,200.50 L 391.00,194.50 L 397.00,192.50 L 399.00,193.50 L 400.00,191.50 L 402.00,192.50 L 403.00,190.50 L 408.00,190.50 L 409.00,188.50 L 411.00,189.50 L 415.00,186.50 L 418.00,187.50 L 418.00,185.50 L 422.00,186.50 L 423.00,184.50 L 430.00,182.50 L 438.00,182.50 L 439.00,180.50 L 443.00,181.50 L 444.00,179.50 L 448.00,180.50 L 448.00,178.50 L 454.00,179.50 L 454.00,177.50 L 460.00,178.50 L 461.00,176.50 L 469.00,175.50 L 476.00,176.50 L 477.00,174.50 L 490.00,175.50 L 490.00,173.50 L 531.00,173.50 L 531.00,175.50 L 544.00,174.50 L 545.00,176.50 L 553.00,175.50 L 560.00,176.50 L 560.00,178.50 L 573.00,178.50 L 578.00,179.50 L 579.00,181.50 L 583.00,180.50 L 596.00,183.50 L 597.00,185.50 L 604.00,185.50 L 604.00,187.50 L 607.00,186.50 L 614.00,188.50 L 626.00,192.50 L 629.00,195.50 L 631.00,194.50 L 642.00,198.50 L 642.00,200.50 L 644.00,199.50 L 647.00,202.50 L 649.00,201.50 L 656.00,206.50 L 658.00,205.50 L 658.00,207.50 L 662.00,207.50 L 662.00,209.50 L 664.00,208.50 L 664.00,210.50 L 666.00,209.50 L 668.50,211.00 L 668.00,212.50 L 670.00,211.50 L 670.00,213.50 L 672.00,212.50 L 679.00,218.50 L 681.00,217.50 L 681.00,219.50 L 682.00,218.50 L 686.00,220.50 L 686.00,222.50 L 687.00,221.50 L 694.00,225.50 L 694.00,227.50 L 695.00,226.50 L 700.00,229.50 L 700.00,231.50 L 703.00,231.50 L 703.00,233.50 L 706.00,233.50 L 714.00,239.50 L 714.00,241.50 L 715.00,240.50 L 718.00,242.50 L 718.00,244.50 L 719.00,243.50 L 734.00,255.50 L 734.50,258.00 L 745.00,265.50 L 745.50,268.00 L 748.00,268.50 L 755.50,276.00 L 754.50,277.00 L 760.50,281.00 L 767.50,289.00 L 766.50,290.00 L 770.50,292.00 L 772.50,302.00 L 728.00,347.50 L 727.00,346.50 L 721.00,352.50 L 719.00,351.50 L 718.00,353.50 L 713.00,353.50 L 710.00,350.50 L 709.00,351.50 L 705.50,348.00 L 706.00,346.50 L 704.50,347.00 L 696.50,338.00 L 697.50,337.00 L 696.00,337.50 L 695.50,335.00 L 694.00,335.50 L 693.50,333.00 L 692.00,333.50 L 684.00,323.50 L 683.00,324.50 L 675.00,315.50 L 674.00,316.50 L 670.00,313.50 L 669.00,310.50 L 668.00,311.50 L 665.00,309.50 L 643.00,292.50 L 642.00,293.50 L 636.00,288.50 L 634.00,289.50 L 618.00,281.50 L 618.00,279.50 L 616.00,280.50 L 616.00,278.50 L 614.00,279.50 L 606.00,274.50 L 604.00,275.50 L 601.00,272.50 L 599.00,273.50 L 586.00,269.50 L 586.00,267.50 L 583.00,268.50 L 579.00,265.50 L 576.00,266.50 L 575.00,264.50 L 567.00,264.50 L 566.00,262.50 L 562.00,263.50 L 562.00,261.50 L 551.00,261.50 L 543.00,258.50 L 535.00,259.50 L 534.00,257.50 L 521.00,258.50 L 521.00,256.50 L 499.00,256.50 L 499.00,258.50 L 486.00,257.50 L 487.00,259.50 L 471.00,261.50 L 464.00,260.50 L 464.00,262.50 L 455.00,262.50 L 454.00,264.50 L 447.00,264.50 L 446.00,266.50 L 443.00,265.50 L 442.00,267.50 L 440.00,266.50 L 439.00,268.50 L 433.00,270.50 L 430.00,269.50 L 430.00,271.50 L 427.00,270.50 L 427.00,272.50 L 422.00,272.50 L 421.00,274.50 L 419.00,273.50 L 414.00,277.50 L 409.00,279.50 L 407.00,278.50 L 407.00,280.50 L 400.00,283.50 L 399.00,282.50 L 399.00,284.50 L 392.00,287.50 L 391.00,286.50 L 390.00,288.50 L 388.50,288.00 L 389.00,289.50 L 383.00,292.50 L 382.00,291.50 L 382.00,293.50 L 377.00,294.50 L 349.00,316.50 L 348.00,315.50 L 348.50,317.00 L 341.00,323.50 L 340.00,322.50 L 340.50,324.00 L 328.00,336.50 L 326.50,336.00 L 327.50,337.00 L 319.50,346.00 L 317.50,346.00 L 318.50,347.00 L 313.50,351.00 L 314.50,352.00 L 310.50,355.00 L 311.50,356.00 L 304.50,363.00 L 304.50,366.00 L 298.50,372.00 L 298.50,375.00 L 296.50,375.00 L 297.50,376.00 L 293.50,380.00 L 294.50,381.00 L 291.50,387.00 L 289.50,387.00 L 290.50,389.00 L 288.50,389.00 L 289.50,390.00 L 282.50,405.00 L 281.00,404.50 L 281.50,407.00 L 279.50,407.00 L 280.50,409.00 L 278.50,414.00 L 276.50,414.00 L 276.50,419.00 L 274.50,419.00 L 275.50,421.00 L 273.50,427.00 L 272.00,426.50 L 272.50,429.00 L 270.50,430.00 L 270.50,436.00 L 267.50,440.00 L 268.50,443.00 L 266.50,443.00 L 266.50,450.00 L 264.50,451.00 L 265.50,455.00 L 263.50,455.00 L 263.50,465.00 L 261.50,465.00 L 261.50,477.00 L 259.50,478.00 L 260.50,486.00 L 258.50,487.00 L 259.50,500.00 L 257.50,499.00 L 257.50,526.00 L 259.50,526.00 L 259.50,546.00 L 261.50,547.00 L 260.50,553.00 L 262.50,554.00 L 261.50,559.00 L 263.50,559.00 L 262.50,564.00 L 264.50,565.00 L 263.50,568.00 L 265.50,569.00 L 265.50,576.00 L 267.50,577.00 L 266.50,580.00 L 268.50,580.00 L 270.50,587.00 L 269.50,590.00 L 271.50,591.00 L 271.50,596.00 L 273.50,596.00 L 273.50,601.00 L 275.50,602.00 L 281.50,616.00 L 280.50,618.00 L 282.50,618.00 L 281.50,620.00 L 283.50,620.00 L 289.50,632.00 L 288.50,634.00 L 291.50,636.00 L 292.50,641.00 L 294.50,641.00 L 298.50,648.00 L 297.50,649.00 L 303.50,655.00 L 306.50,660.00 L 305.50,661.00 L 310.50,665.00 L 316.50,673.00 L 315.50,674.00 L 318.00,674.50 L 322.50,680.00 L 321.50,681.00 L 323.00,680.50 L 343.50,701.00 L 343.00,702.50 L 344.00,701.50 L 350.00,706.50 L 350.00,708.50 L 351.00,707.50 L 355.00,712.50 L 356.00,711.50 L 373.00,723.50 L 376.00,727.50 L 377.00,726.50 L 395.00,736.50 L 395.00,738.50 L 399.00,738.50 L 399.00,740.50 L 403.00,740.50 L 403.00,742.50 L 405.00,741.50 L 414.00,745.50 L 414.00,747.50 L 419.00,747.50 L 419.00,749.50 L 424.00,749.50 L 427.00,752.50 L 433.00,752.50 L 433.00,754.50 L 439.00,754.50 L 455.00,760.50 L 458.00,759.50 L 459.00,761.50 L 469.00,761.50 L 469.00,763.50 L 483.00,763.50 L 483.00,765.50 L 493.00,764.50 L 494.00,766.50 L 531.00,766.50 L 530.00,764.50 L 541.00,765.50 L 542.00,763.50 L 555.00,763.50 L 555.00,761.50 L 561.00,762.50 L 561.00,760.50 L 570.00,760.50 L 571.00,758.50 L 574.00,759.50 L 575.00,757.50 L 578.00,758.50 L 578.00,756.50 L 595.00,751.50 L 597.00,752.50 L 600.00,749.50 L 605.00,749.50 L 605.00,747.50 L 610.00,747.50 L 610.00,745.50 L 612.00,746.50 L 617.00,742.50 L 619.00,743.50 L 620.00,741.50 L 621.00,742.50 L 622.00,740.50 L 623.00,741.50 L 624.00,739.50 L 629.00,738.50 L 629.00,736.50 L 642.00,729.50 L 643.00,730.50 L 645.00,727.50 L 648.00,727.50 L 650.00,724.50 L 656.00,720.50 L 657.00,721.50 L 659.00,718.50 L 660.00,719.50 L 660.00,717.50 L 663.00,715.50 L 664.00,716.50 L 664.00,714.50 L 667.00,712.50 L 668.00,713.50 L 668.00,711.50 L 672.00,708.50 L 673.00,709.50 L 672.50,708.00 L 678.00,703.50 L 679.00,704.50 L 678.50,703.00 L 702.00,679.50 L 704.50,679.00 L 703.50,678.00 L 708.50,672.00 L 710.50,672.00 L 709.50,671.00 L 711.50,668.00 L 716.00,662.50 L 717.50,663.00 L 716.50,662.00 L 729.50,645.00 L 730.50,640.00 L 732.50,640.00 L 731.50,639.00 L 736.50,633.00 L 735.50,632.00 L 741.50,620.00 L 747.00,616.50 L 752.00,616.50 L 753.00,618.50 L 754.00,617.50 L 765.00,621.50 L 765.00,623.50 L 770.00,623.50 L 773.00,626.50 L 775.00,625.50 L 778.00,626.50 L 778.00,628.50 L 780.00,627.50 L 783.00,630.50 L 785.00,629.50 L 788.00,632.50 L 790.00,631.50 L 798.00,636.50 L 800.00,635.50 L 803.00,638.50 L 805.00,637.50 L 813.00,640.50 L 813.00,642.50 L 815.00,641.50 L 814.50,643.00 L 817.50,644.00 L 819.50,649.00 L 819.50,652.00 L 817.50,653.00 L 818.50,655.00 L 814.50,660.00 L 815.50,661.00 L 807.50,677.00 L 805.50,677.00 L 806.50,678.00 L 801.50,684.00 L 800.50,689.00 L 798.50,689.00 L 799.50,690.00 L 795.50,694.00 L 795.50,697.00 L 793.50,697.00 L 793.50,700.00 L 789.50,706.00 L 787.50,706.00 L 788.50,707.00 L 784.50,713.00 L 782.50,713.00 L 782.50,716.00 L 779.50,717.00 L 780.50,718.00 L 778.50,721.00 L 776.50,721.00 L 777.50,722.00 L 775.50,725.00 L 769.00,732.50 L 767.50,732.00 L 768.50,733.00 L 761.50,741.00 L 759.00,741.50 L 756.50,744.00 L 757.50,745.00 L 743.00,759.50 L 740.50,760.00 L 741.50,761.00 L 739.00,763.50 L 717.00,781.50 L 716.00,780.50 L 716.00,782.50 L 706.00,789.50 L 705.00,788.50 L 705.00,790.50 L 702.00,790.50 L 702.00,792.50 L 694.00,797.50 L 693.00,796.50 L 693.00,798.50 L 688.00,799.50 L 688.00,801.50 L 683.00,802.50 L 683.00,804.50 L 678.00,805.50 L 678.00,807.50 L 676.00,806.50 L 676.00,808.50 L 664.00,814.50 L 663.00,813.50 L 650.00,821.50 L 648.00,820.50 L 647.00,822.50 L 643.00,822.50 L 638.00,826.50 L 636.00,825.50 L 633.00,828.50 L 628.00,828.50 L 628.00,830.50 L 625.00,829.50 L 625.00,831.50 L 619.00,833.50 L 616.00,832.50 L 616.00,834.50 L 613.00,833.50 L 612.00,835.50 L 610.00,834.50 L 606.00,837.50 L 599.00,837.50 L 599.00,839.50 L 595.00,838.50 L 595.00,840.50 L 591.00,839.50 L 591.00,841.50 L 582.00,841.50 L 582.00,843.50 L 578.00,842.50 L 572.00,845.50 L 566.00,844.50 L 565.00,846.50 L 552.00,846.50 L 550.00,848.50 L 543.00,847.50 L 542.00,849.50 L 526.00,848.50 L 527.00,850.50 Z M 531.00,721.50 L 494.00,721.50 L 494.00,719.50 L 478.00,719.50 L 477.00,717.50 L 473.00,718.50 L 472.00,716.50 L 468.00,717.50 L 467.00,715.50 L 463.00,716.50 L 448.00,712.50 L 448.00,710.50 L 446.00,711.50 L 445.00,709.50 L 443.00,710.50 L 442.00,708.50 L 440.00,709.50 L 434.00,707.50 L 434.00,705.50 L 432.00,706.50 L 427.00,702.50 L 425.00,703.50 L 420.00,701.50 L 418.00,698.50 L 416.00,699.50 L 416.00,697.50 L 415.00,698.50 L 407.00,694.50 L 405.00,691.50 L 404.00,692.50 L 397.00,688.50 L 397.00,686.50 L 394.00,686.50 L 394.00,684.50 L 391.00,684.50 L 391.00,682.50 L 390.00,683.50 L 384.00,679.50 L 384.00,677.50 L 383.00,678.50 L 374.00,671.50 L 373.50,669.00 L 372.00,669.50 L 352.50,650.00 L 353.50,649.00 L 351.50,649.00 L 347.50,644.00 L 348.50,643.00 L 345.50,642.00 L 327.50,615.00 L 327.50,611.00 L 325.50,611.00 L 319.50,599.00 L 320.50,597.00 L 316.50,592.00 L 316.50,587.00 L 314.50,587.00 L 312.50,581.00 L 313.50,579.00 L 311.50,578.00 L 309.50,572.00 L 310.50,569.00 L 308.50,568.00 L 308.50,562.00 L 306.50,561.00 L 307.50,557.00 L 305.50,556.00 L 306.50,552.00 L 304.50,551.00 L 305.50,547.00 L 303.50,546.00 L 304.50,540.00 L 302.50,540.00 L 303.50,530.00 L 301.50,529.00 L 302.50,484.00 L 304.50,484.00 L 303.50,478.00 L 304.50,471.00 L 306.50,471.00 L 305.50,467.00 L 307.50,466.00 L 306.50,462.00 L 308.50,454.00 L 310.50,454.00 L 309.50,451.00 L 312.50,447.00 L 311.50,445.00 L 313.50,444.00 L 313.50,439.00 L 316.50,431.00 L 318.50,431.00 L 317.50,429.00 L 320.50,426.00 L 319.50,424.00 L 321.50,424.00 L 320.50,423.00 L 325.50,412.00 L 328.50,410.00 L 329.50,405.00 L 332.50,403.00 L 332.50,400.00 L 343.50,384.00 L 345.50,384.00 L 344.50,383.00 L 346.50,380.00 L 349.00,379.50 L 348.50,378.00 L 360.50,364.00 L 378.00,348.50 L 379.00,349.50 L 379.00,347.50 L 383.00,344.50 L 384.00,345.50 L 383.50,344.00 L 387.00,341.50 L 388.00,342.50 L 388.00,340.50 L 391.00,340.50 L 390.50,339.00 L 394.00,336.50 L 397.00,336.50 L 397.00,334.50 L 400.00,334.50 L 400.00,332.50 L 405.00,331.50 L 405.00,329.50 L 415.00,324.50 L 416.00,325.50 L 416.00,323.50 L 434.00,315.50 L 437.00,316.50 L 440.00,313.50 L 445.00,313.50 L 446.00,311.50 L 448.00,312.50 L 452.00,309.50 L 459.00,309.50 L 459.00,307.50 L 463.00,308.50 L 464.00,306.50 L 467.00,307.50 L 467.00,305.50 L 472.00,306.50 L 473.00,304.50 L 478.00,305.50 L 479.00,303.50 L 486.00,304.50 L 486.00,302.50 L 496.00,303.50 L 496.00,301.50 L 528.00,301.50 L 528.00,303.50 L 545.00,303.50 L 546.00,305.50 L 550.00,304.50 L 565.00,307.50 L 565.00,309.50 L 568.00,308.50 L 574.00,310.50 L 575.00,312.50 L 578.00,311.50 L 581.00,312.50 L 581.00,314.50 L 583.00,313.50 L 584.00,315.50 L 589.00,315.50 L 589.00,317.50 L 594.00,317.50 L 594.00,319.50 L 596.00,318.50 L 605.00,324.50 L 607.00,323.50 L 609.00,326.50 L 610.00,325.50 L 621.00,331.50 L 647.00,350.50 L 655.50,358.00 L 654.50,359.00 L 657.00,361.50 L 659.50,362.00 L 659.00,363.50 L 661.50,364.00 L 661.00,365.50 L 662.00,364.50 L 664.50,367.00 L 665.00,369.50 L 666.00,368.50 L 668.50,371.00 L 681.50,387.00 L 680.50,388.00 L 682.00,387.50 L 685.50,392.00 L 684.50,398.00 L 683.00,397.50 L 680.50,400.00 L 681.50,401.00 L 679.00,401.50 L 674.50,406.00 L 675.50,407.00 L 673.00,407.50 L 673.50,409.00 L 671.00,409.50 L 664.50,416.00 L 665.50,417.00 L 663.00,417.50 L 657.50,423.00 L 658.50,424.00 L 656.00,426.50 L 655.00,425.50 L 649.50,431.00 L 650.50,432.00 L 648.00,432.50 L 633.00,448.50 L 629.50,446.00 L 619.50,430.00 L 609.50,421.00 L 610.00,419.50 L 609.00,420.50 L 606.00,418.50 L 606.50,417.00 L 605.00,417.50 L 603.00,414.50 L 602.00,415.50 L 588.00,409.50 L 588.00,407.50 L 582.00,407.50 L 581.00,405.50 L 554.00,404.50 L 553.00,406.50 L 544.00,406.50 L 543.00,408.50 L 535.00,411.50 L 533.00,410.50 L 533.50,412.00 L 530.00,413.50 L 529.00,412.50 L 529.00,414.50 L 527.00,413.50 L 527.00,415.50 L 517.00,422.50 L 510.00,424.50 L 496.00,415.50 L 496.00,413.50 L 492.00,413.50 L 488.00,411.50 L 488.00,409.50 L 486.00,410.50 L 480.00,408.50 L 479.00,406.50 L 448.00,404.50 L 448.00,406.50 L 439.00,406.50 L 438.00,408.50 L 432.00,410.50 L 430.00,409.50 L 430.00,411.50 L 428.00,410.50 L 426.00,413.50 L 424.00,412.50 L 422.00,415.50 L 413.00,421.50 L 412.00,420.50 L 412.50,422.00 L 398.50,435.00 L 399.50,436.00 L 391.50,451.00 L 389.50,451.00 L 390.50,453.00 L 387.50,460.00 L 386.50,469.00 L 384.50,469.00 L 385.50,492.00 L 388.50,503.00 L 387.50,506.00 L 389.50,507.00 L 388.50,509.00 L 390.50,509.00 L 390.50,514.00 L 392.50,515.00 L 395.50,521.00 L 394.50,522.00 L 396.50,522.00 L 396.50,525.00 L 402.50,531.00 L 401.50,532.00 L 403.00,531.50 L 510.00,638.50 L 516.00,638.50 L 559.00,594.50 L 560.00,595.50 L 566.50,589.00 L 565.50,588.00 L 568.00,587.50 L 567.50,586.00 L 570.00,585.50 L 570.50,583.00 L 575.00,578.50 L 576.00,579.50 L 575.50,578.00 L 578.00,577.50 L 578.50,575.00 L 583.00,570.50 L 584.00,571.50 L 583.50,570.00 L 586.00,569.50 L 585.50,568.00 L 592.00,563.50 L 591.50,562.00 L 594.00,561.50 L 593.50,560.00 L 624.00,529.50 L 625.50,530.00 L 624.50,529.00 L 628.50,525.00 L 628.50,521.00 L 631.00,519.50 L 632.50,522.00 L 630.50,523.00 L 630.50,531.00 L 628.50,539.00 L 626.50,540.00 L 626.50,549.00 L 624.50,549.00 L 624.50,560.00 L 622.50,560.00 L 622.50,565.00 L 624.50,565.00 L 626.50,573.00 L 635.00,577.50 L 635.00,579.50 L 637.00,578.50 L 640.00,581.50 L 645.00,581.50 L 648.00,584.50 L 655.00,585.50 L 658.00,588.50 L 660.00,587.50 L 663.00,590.50 L 667.00,590.50 L 668.00,592.50 L 671.00,591.50 L 673.50,593.00 L 673.00,594.50 L 675.00,593.50 L 678.00,594.50 L 678.00,596.50 L 680.00,595.50 L 681.00,597.50 L 683.00,596.50 L 693.00,600.50 L 696.50,604.00 L 697.50,611.00 L 678.50,641.00 L 676.50,641.00 L 677.50,642.00 L 671.50,647.00 L 672.50,648.00 L 661.50,658.00 L 662.50,659.00 L 659.00,662.50 L 656.50,663.00 L 657.50,664.00 L 655.00,666.50 L 649.00,671.50 L 648.00,670.50 L 648.50,672.00 L 639.00,679.50 L 638.00,678.50 L 638.50,680.00 L 634.00,683.50 L 631.00,683.50 L 622.00,691.50 L 620.00,690.50 L 620.00,692.50 L 615.00,693.50 L 615.00,695.50 L 599.00,703.50 L 597.00,702.50 L 592.00,706.50 L 590.00,705.50 L 587.00,708.50 L 585.00,707.50 L 584.00,709.50 L 575.00,712.50 L 573.00,711.50 L 572.00,713.50 L 557.00,717.50 L 553.00,716.50 L 552.00,718.50 L 547.00,717.50 L 546.00,719.50 L 540.00,718.50 L 539.00,720.50 L 531.00,721.50 Z M 736.00,483.50 L 731.00,483.50 L 731.00,481.50 L 729.00,482.50 L 728.00,480.50 L 727.00,481.50 L 724.00,479.50 L 724.50,478.00 L 722.00,475.50 L 721.00,476.50 L 715.50,471.00 L 716.50,470.00 L 714.00,469.50 L 689.50,445.00 L 686.50,440.00 L 687.50,439.00 L 685.50,438.00 L 685.50,430.00 L 687.50,426.00 L 699.00,415.50 L 709.00,414.50 L 709.00,416.50 L 713.00,416.50 L 713.00,418.50 L 714.00,417.50 L 730.00,431.50 L 731.00,434.50 L 736.00,434.50 L 778.00,392.50 L 779.00,393.50 L 779.50,391.00 L 782.00,390.50 L 782.50,388.00 L 786.00,384.50 L 787.00,385.50 L 787.50,383.00 L 790.00,380.50 L 791.00,381.50 L 791.50,379.00 L 794.00,376.50 L 795.00,377.50 L 795.50,375.00 L 798.00,374.50 L 809.00,361.50 L 819.00,361.50 L 833.50,376.00 L 833.50,381.00 L 835.50,382.00 L 833.50,384.00 L 833.50,389.00 L 811.50,409.00 L 812.50,410.00 L 745.00,478.50 L 736.00,483.50 Z" />
  </g>
</svg>
